<svg width="24" height="25" viewBox="0 0 24 25" fill="none" xmlns="http://www.w3.org/2000/svg">
<path d="M2.25 21.5H21.75M3.75 3.5V21.5M14.25 3.5V21.5M20.25 8V21.5M6.75 7.25H7.5M6.75 10.25H7.5M6.75 13.25H7.5M10.5 7.25H11.25M10.5 10.25H11.25M10.5 13.25H11.25M6.75 21.5V18.125C6.75 17.504 7.254 17 7.875 17H10.125C10.746 17 11.25 17.504 11.25 18.125V21.5M3 3.5H15M14.25 8H21M17.25 11.75H17.258V11.758H17.25V11.75ZM17.25 14.75H17.258V14.758H17.25V14.75ZM17.25 17.75H17.258V17.758H17.25V17.75Z" stroke="black" stroke-width="1.5" stroke-linecap="round" stroke-linejoin="round"/>
</svg>
