<svg width="24" height="25" viewBox="0 0 24 25" fill="none" xmlns="http://www.w3.org/2000/svg">
<path d="M13.5 17.375H16.875M16.875 17.375H20.25M16.875 17.375V14M16.875 17.375V20.75M6 11H8.25C8.84674 11 9.41903 10.7629 9.84099 10.341C10.2629 9.91903 10.5 9.34674 10.5 8.75V6.5C10.5 5.90326 10.2629 5.33097 9.84099 4.90901C9.41903 4.48705 8.84674 4.25 8.25 4.25H6C5.40326 4.25 4.83097 4.48705 4.40901 4.90901C3.98705 5.33097 3.75 5.90326 3.75 6.5V8.75C3.75 9.34674 3.98705 9.91903 4.40901 10.341C4.83097 10.7629 5.40326 11 6 11ZM6 20.75H8.25C8.84674 20.75 9.41903 20.5129 9.84099 20.091C10.2629 19.669 10.5 19.0967 10.5 18.5V16.25C10.5 15.6533 10.2629 15.081 9.84099 14.659C9.41903 14.2371 8.84674 14 8.25 14H6C5.40326 14 4.83097 14.2371 4.40901 14.659C3.98705 15.081 3.75 15.6533 3.75 16.25V18.5C3.75 19.0967 3.98705 19.669 4.40901 20.091C4.83097 20.5129 5.40326 20.75 6 20.75ZM15.75 11H18C18.5967 11 19.169 10.7629 19.591 10.341C20.0129 9.91903 20.25 9.34674 20.25 8.75V6.5C20.25 5.90326 20.0129 5.33097 19.591 4.90901C19.169 4.48705 18.5967 4.25 18 4.25H15.75C15.1533 4.25 14.581 4.48705 14.159 4.90901C13.7371 5.33097 13.5 5.90326 13.5 6.5V8.75C13.5 9.34674 13.7371 9.91903 14.159 10.341C14.581 10.7629 15.1533 11 15.75 11Z" stroke="black" stroke-width="1.5" stroke-linecap="round" stroke-linejoin="round"/>
</svg>
