<svg width="24" height="25" viewBox="0 0 24 25" fill="none" xmlns="http://www.w3.org/2000/svg">
<path d="M15.75 11V6.5C15.75 5.50544 15.3549 4.55161 14.6517 3.84835C13.9484 3.14509 12.9946 2.75 12 2.75C11.0054 2.75 10.0516 3.14509 9.34835 3.84835C8.64509 4.55161 8.25 5.50544 8.25 6.5V11M19.606 9.007L20.869 21.007C20.939 21.672 20.419 22.25 19.75 22.25H4.25C4.09221 22.2502 3.93614 22.2171 3.79195 22.1531C3.64775 22.089 3.51865 21.9953 3.41302 21.8781C3.3074 21.7608 3.22761 21.6227 3.17885 21.4726C3.13009 21.3226 3.11345 21.1639 3.13 21.007L4.394 9.007C4.42316 8.73056 4.55363 8.4747 4.76025 8.28876C4.96688 8.10281 5.23503 7.99995 5.513 8H18.487C19.063 8 19.546 8.435 19.606 9.007ZM8.625 11C8.625 11.0995 8.58549 11.1948 8.51517 11.2652C8.44484 11.3355 8.34946 11.375 8.25 11.375C8.15054 11.375 8.05516 11.3355 7.98484 11.2652C7.91451 11.1948 7.875 11.0995 7.875 11C7.875 10.9005 7.91451 10.8052 7.98484 10.7348C8.05516 10.6645 8.15054 10.625 8.25 10.625C8.34946 10.625 8.44484 10.6645 8.51517 10.7348C8.58549 10.8052 8.625 10.9005 8.625 11ZM16.125 11C16.125 11.0995 16.0855 11.1948 16.0152 11.2652C15.9448 11.3355 15.8495 11.375 15.75 11.375C15.6505 11.375 15.5552 11.3355 15.4848 11.2652C15.4145 11.1948 15.375 11.0995 15.375 11C15.375 10.9005 15.4145 10.8052 15.4848 10.7348C15.5552 10.6645 15.6505 10.625 15.75 10.625C15.8495 10.625 15.9448 10.6645 16.0152 10.7348C16.0855 10.8052 16.125 10.9005 16.125 11Z" stroke="black" stroke-width="1.5" stroke-linecap="round" stroke-linejoin="round"/>
</svg>
