<svg width="24" height="25" viewBox="0 0 24 25" fill="none" xmlns="http://www.w3.org/2000/svg">
<path d="M20 18.5V10.5C20 8.614 20 7.671 19.414 7.086C18.828 6.5 17.886 6.5 16 6.5H4V18.5C4 20.385 4 21.328 4.586 21.914C5.172 22.5 6.114 22.5 8 22.5H16C17.886 22.5 18.828 22.5 19.414 21.914C20 21.328 20 20.385 20 18.5Z" stroke="black" stroke-width="1.5" stroke-linecap="round" stroke-linejoin="round"/>
<path d="M12 11.5C12.7956 11.5 13.5587 11.8161 14.1213 12.3787C14.6839 12.9413 15 13.7044 15 14.5M12 11.5C11.2044 11.5 10.4413 11.8161 9.87868 12.3787C9.31607 12.9413 9 13.7044 9 14.5M12 11.5V10.5M15 14.5H9M15 14.5H16M9 14.5H8M8 18.5H16M4 6.50001L11.385 3.40601C13.034 2.71501 13.858 2.36901 14.515 2.54601C14.941 2.66048 15.3172 2.91256 15.585 3.26301C16 3.80501 16 4.70301 16 6.50001" stroke="black" stroke-width="1.5" stroke-linecap="round" stroke-linejoin="round"/>
</svg>
