<svg width="24" height="24" viewBox="0 0 24 24" fill="none" xmlns="http://www.w3.org/2000/svg">
<path fill-rule="evenodd" clip-rule="evenodd" d="M5 2C3.34315 2 2 3.34315 2 5V19C2 20.6569 3.34315 22 5 22H19C20.6569 22 22 20.6569 22 19V5C22 3.34315 20.6569 2 19 2H5ZM17.6187 9.61872C17.9604 9.27701 17.9604 8.72299 17.6187 8.38128C17.277 8.03957 16.723 8.03957 16.3813 8.38128L11 13.7626L8.61872 11.3813C8.27701 11.0396 7.72299 11.0396 7.38128 11.3813C7.03957 11.723 7.03957 12.277 7.38128 12.6187L10.3813 15.6187C10.723 15.9604 11.277 15.9604 11.6187 15.6187L17.6187 9.61872Z" fill="black"/>
</svg>
